<?xml version="1.0" encoding="UTF-8" standalone="no"?>
<!DOCTYPE svg PUBLIC "-//W3C//DTD SVG 1.1//EN" "http://www.w3.org/Graphics/SVG/1.1/DTD/svg11.dtd">
<svg width="100%" height="100%" viewBox="0 0 512 512" version="1.1" xmlns="http://www.w3.org/2000/svg" xmlns:xlink="http://www.w3.org/1999/xlink" xml:space="preserve" xmlns:serif="http://www.serif.com/" style="fill-rule:evenodd;clip-rule:evenodd;stroke-linecap:round;stroke-linejoin:round;stroke-miterlimit:1.5;">
    <g transform="matrix(-1,0,0,1,499.588,0)">
        <path d="M401.549,430.884C381.466,447.621 358.459,460.967 333.412,470.039C309.243,478.792 283.175,483.566 256,483.566C130.403,483.566 28.434,381.597 28.434,256C28.434,130.403 130.403,28.434 256,28.434C334.803,28.434 404.304,68.576 445.154,129.509" style="fill:none;stroke:white;stroke-width:24px;"/>
    </g>
    <g transform="matrix(-1,0,0,1,499.588,0)">
        <path d="M173.743,338.533L256,256L256,149.232" style="fill:none;stroke:white;stroke-width:24px;"/>
    </g>
    <g transform="matrix(-1,0,0,1,499.588,-1.42109e-14)">
        <path d="M445.154,46.943L445.154,128.845L370.467,128.845" style="fill:none;stroke:white;stroke-width:24px;"/>
    </g>
</svg>
