<?xml version="1.0" encoding="UTF-8" standalone="no"?>
<svg
   width="340"
   height="255"
   viewBox="0 0 340 255"
   version="1.1"
   xml:space="preserve"
   style="clip-rule:evenodd;fill-rule:evenodd;stroke-linejoin:round;stroke-miterlimit:2"
   id="svg58"
   sodipodi:docname="load-screen.svg"
   inkscape:version="1.2.2 (b0a8486541, 2022-12-01)"
   inkscape:export-filename="load-screen.svg"
   inkscape:export-xdpi="67.07"
   inkscape:export-ydpi="67.07"
   xmlns:inkscape="http://www.inkscape.org/namespaces/inkscape"
   xmlns:sodipodi="http://sodipodi.sourceforge.net/DTD/sodipodi-0.dtd"
   xmlns="http://www.w3.org/2000/svg"
   xmlns:svg="http://www.w3.org/2000/svg"><defs
   id="defs62" /><sodipodi:namedview
   id="namedview60"
   pagecolor="#ffffff"
   bordercolor="#666666"
   borderopacity="1.0"
   inkscape:showpageshadow="2"
   inkscape:pageopacity="0.0"
   inkscape:pagecheckerboard="0"
   inkscape:deskcolor="#d1d1d1"
   showgrid="false"
   inkscape:zoom="1.5654206"
   inkscape:cx="92.30746"
   inkscape:cy="234.76119"
   inkscape:window-width="2560"
   inkscape:window-height="1359"
   inkscape:window-x="2560"
   inkscape:window-y="1440"
   inkscape:window-maximized="1"
   inkscape:current-layer="svg58" />
    <g
   transform="matrix(4.9789644,0,0,2.8846425,-935.90641,-280.74123)"
   id="g4"
   style="fill:#2b3035;fill-opacity:1;stroke-width:0;stroke-dasharray:none;paint-order:stroke fill markers">
        
    <rect
   style="fill:#2b3035;fill-opacity:1;stroke:none;stroke-width:0;stroke-dasharray:none;paint-order:stroke fill markers"
   id="rect1521"
   width="68.287292"
   height="88.39917"
   x="187.97209"
   y="97.322708" /></g>
    <g
   transform="matrix(0.67540001,0,0,0.34666594,-124.87797,99.838856)"
   id="g42">
        <path
   d="m 288.317,380.982 h -13.078 v -49.11 h 2.953 v 43.904 h 10.125 z"
   style="fill:#ffffff;fill-rule:nonzero"
   id="path6" />
        <path
   d="m 299.321,381.804 c -2.66,0 -4.784,-1.638 -6.372,-4.915 -1.588,-3.276 -2.382,-7.619 -2.382,-13.031 0,-5.89 0.827,-10.491 2.479,-13.801 1.652,-3.311 3.885,-4.966 6.697,-4.966 2.684,0 4.779,1.61 6.284,4.829 1.506,3.219 2.259,7.683 2.259,13.391 0,5.593 -0.811,10.074 -2.434,13.441 -1.623,3.368 -3.8,5.052 -6.531,5.052 z m 0.211,-31.987 c -1.851,0 -3.316,1.227 -4.394,3.682 -1.078,2.454 -1.617,5.839 -1.617,10.154 0,4.155 0.545,7.432 1.634,9.829 1.09,2.397 2.549,3.596 4.377,3.596 1.864,0 3.296,-1.176 4.298,-3.528 1.002,-2.351 1.503,-5.696 1.503,-10.034 0,-4.384 -0.501,-7.763 -1.503,-10.137 -1.002,-2.375 -2.434,-3.562 -4.298,-3.562 z"
   style="fill:#ffffff;fill-rule:nonzero"
   id="path8" />
        <path
   d="m 325.776,380.982 h -2.882 v -5.48 h -0.071 c -1.254,4.201 -3.099,6.302 -5.537,6.302 -1.793,0 -3.196,-0.925 -4.21,-2.774 -1.013,-1.849 -1.52,-4.304 -1.52,-7.363 0,-6.553 1.98,-10.366 5.941,-11.439 l 5.397,-1.472 c 0,-5.959 -1.237,-8.939 -3.709,-8.939 -2.168,0 -4.125,1.439 -5.871,4.315 v -5.753 c 1.769,-2.192 3.808,-3.288 6.117,-3.288 4.23,0 6.345,4.361 6.345,13.082 z m -2.882,-17.74 -4.342,1.164 c -1.336,0.366 -2.344,1.011 -3.024,1.935 -0.679,0.925 -1.019,2.563 -1.019,4.915 0,1.712 0.313,3.111 0.94,4.195 0.627,1.085 1.462,1.627 2.505,1.627 1.43,0 2.611,-0.976 3.542,-2.928 0.932,-1.952 1.398,-4.424 1.398,-7.415 z"
   style="fill:#ffffff;fill-rule:nonzero"
   id="path10" />
        <path
   d="m 346.571,380.982 h -2.882 v -5.959 h -0.071 c -1.336,4.521 -3.398,6.781 -6.187,6.781 -2.262,0 -4.07,-1.57 -5.423,-4.709 -1.354,-3.139 -2.03,-7.415 -2.03,-12.826 0,-5.799 0.75,-10.445 2.25,-13.938 1.5,-3.493 3.498,-5.24 5.994,-5.24 2.472,0 4.271,1.895 5.396,5.685 h 0.071 v -21.712 h 2.882 z m -2.882,-15.856 v -5.172 c 0,-2.831 -0.481,-5.228 -1.442,-7.192 -0.961,-1.963 -2.18,-2.945 -3.656,-2.945 -1.758,0 -3.141,1.256 -4.149,3.767 -1.007,2.512 -1.511,5.982 -1.511,10.411 0,4.042 0.483,7.232 1.45,9.573 0.967,2.34 2.265,3.51 3.894,3.51 1.605,0 2.909,-1.13 3.911,-3.391 1.002,-2.26 1.503,-5.114 1.503,-8.561 z"
   style="fill:#ffffff;fill-rule:nonzero"
   id="path12" />
        <path
   d="m 353.884,337.009 c -0.516,0 -0.955,-0.343 -1.318,-1.028 -0.364,-0.685 -0.545,-1.552 -0.545,-2.602 0,-1.051 0.181,-1.924 0.545,-2.62 0.363,-0.697 0.802,-1.045 1.318,-1.045 0.527,0 0.975,0.348 1.345,1.045 0.369,0.696 0.553,1.569 0.553,2.62 0,1.004 -0.184,1.86 -0.553,2.568 -0.37,0.708 -0.818,1.062 -1.345,1.062 z m 1.406,43.973 h -2.883 v -35.069 h 2.883 z"
   style="fill:#ffffff;fill-rule:nonzero"
   id="path14" />
        <path
   d="m 376.067,380.982 h -2.882 v -20 c 0,-7.443 -1.395,-11.165 -4.184,-11.165 -1.441,0 -2.634,1.056 -3.577,3.168 -0.943,2.112 -1.415,4.778 -1.415,7.997 v 20 h -2.883 v -35.069 h 2.883 v 5.822 h 0.07 c 1.36,-4.429 3.328,-6.644 5.906,-6.644 1.969,0 3.475,1.239 4.518,3.716 1.043,2.477 1.564,6.056 1.564,10.736 z"
   style="fill:#ffffff;fill-rule:nonzero"
   id="path16" />
        <path
   d="m 396.862,378.174 c 0,12.877 -3.164,19.315 -9.492,19.315 -2.226,0 -4.172,-0.822 -5.836,-2.466 v -5.616 c 2.028,2.192 3.961,3.287 5.801,3.287 4.43,0 6.645,-4.589 6.645,-13.767 v -3.835 h -0.071 c -1.371,4.474 -3.433,6.712 -6.187,6.712 -2.238,0 -4.04,-1.558 -5.405,-4.675 -1.366,-3.116 -2.048,-7.3 -2.048,-12.551 0,-5.959 0.735,-10.697 2.206,-14.213 1.47,-3.516 3.483,-5.274 6.038,-5.274 2.426,0 4.224,1.895 5.396,5.685 h 0.071 v -4.863 h 2.882 z m -2.882,-13.048 v -5.172 c 0,-2.785 -0.484,-5.171 -1.451,-7.157 -0.966,-1.987 -2.17,-2.98 -3.612,-2.98 -1.781,0 -3.176,1.262 -4.183,3.785 -1.008,2.522 -1.512,6.056 -1.512,10.599 0,3.904 0.483,7.026 1.45,9.367 0.967,2.34 2.247,3.51 3.841,3.51 1.617,0 2.932,-1.119 3.946,-3.356 1.014,-2.238 1.521,-5.103 1.521,-8.596 z"
   style="fill:#ffffff;fill-rule:nonzero"
   id="path18" />
        <path
   d="m 405.335,373.174 -2.812,16.849 h -2.057 l 2.057,-16.849 z"
   style="fill:#ffffff;fill-rule:nonzero"
   id="path20" />
        <path
   d="m 423.704,362.42 v 18.562 h -2.953 v -49.11 h 6.926 c 2.695,0 4.784,1.278 6.266,3.835 1.483,2.558 2.224,6.165 2.224,10.822 0,4.658 -0.823,8.471 -2.47,11.439 -1.646,2.968 -3.87,4.452 -6.671,4.452 z m 0,-25.343 v 20.138 h 3.094 c 2.039,0 3.595,-0.908 4.667,-2.723 1.072,-1.815 1.608,-4.378 1.608,-7.689 0,-6.484 -1.968,-9.726 -5.906,-9.726 z"
   style="fill:#ffffff;fill-rule:nonzero"
   id="path22" />
        <rect
   x="440.526"
   y="329.064"
   width="2.8829999"
   height="51.917999"
   style="fill:#ffffff;fill-rule:nonzero"
   id="rect24" />
        <path
   d="m 463.712,364.852 h -12.709 c 0.047,3.904 0.586,6.918 1.617,9.041 1.031,2.123 2.449,3.185 4.254,3.185 2.027,0 3.891,-1.302 5.59,-3.904 v 5.274 c -1.582,2.237 -3.674,3.356 -6.275,3.356 -2.543,0 -4.541,-1.593 -5.995,-4.778 -1.453,-3.185 -2.179,-7.665 -2.179,-13.441 0,-5.457 0.794,-9.904 2.382,-13.34 1.587,-3.436 3.559,-5.154 5.915,-5.154 2.355,0 4.177,1.484 5.466,4.452 1.289,2.968 1.934,7.089 1.934,12.363 z m -2.953,-4.761 c -0.012,-3.242 -0.413,-5.765 -1.204,-7.568 -0.791,-1.804 -1.89,-2.706 -3.296,-2.706 -1.359,0 -2.514,0.948 -3.463,2.843 -0.949,1.895 -1.535,4.372 -1.758,7.431 z"
   style="fill:#ffffff;fill-rule:nonzero"
   id="path26" />
        <path
   d="m 480.956,380.982 h -2.883 v -5.48 h -0.07 c -1.254,4.201 -3.1,6.302 -5.537,6.302 -1.793,0 -3.196,-0.925 -4.21,-2.774 -1.014,-1.849 -1.521,-4.304 -1.521,-7.363 0,-6.553 1.981,-10.366 5.942,-11.439 l 5.396,-1.472 c 0,-5.959 -1.236,-8.939 -3.709,-8.939 -2.168,0 -4.125,1.439 -5.871,4.315 v -5.753 c 1.77,-2.192 3.809,-3.288 6.117,-3.288 4.231,0 6.346,4.361 6.346,13.082 z m -2.883,-17.74 -4.341,1.164 c -1.336,0.366 -2.344,1.011 -3.024,1.935 -0.68,0.925 -1.019,2.563 -1.019,4.915 0,1.712 0.313,3.111 0.94,4.195 0.627,1.085 1.462,1.627 2.505,1.627 1.43,0 2.61,-0.976 3.542,-2.928 0.932,-1.952 1.397,-4.424 1.397,-7.415 z"
   style="fill:#ffffff;fill-rule:nonzero"
   id="path28" />
        <path
   d="m 485.298,379.715 v -6.028 c 1.57,2.261 3.299,3.391 5.186,3.391 2.531,0 3.796,-1.644 3.796,-4.932 0,-0.936 -0.108,-1.729 -0.325,-2.38 -0.217,-0.651 -0.51,-1.227 -0.879,-1.729 -0.369,-0.503 -0.802,-0.954 -1.301,-1.353 -0.498,-0.4 -1.034,-0.816 -1.608,-1.25 -0.797,-0.617 -1.497,-1.239 -2.1,-1.867 -0.604,-0.627 -1.108,-1.335 -1.512,-2.123 -0.405,-0.788 -0.709,-1.684 -0.914,-2.688 -0.205,-1.005 -0.308,-2.181 -0.308,-3.528 0,-1.644 0.193,-3.099 0.58,-4.366 0.387,-1.267 0.903,-2.329 1.547,-3.185 0.645,-0.856 1.38,-1.501 2.206,-1.935 0.826,-0.434 1.679,-0.651 2.558,-0.651 1.558,0 2.953,0.525 4.183,1.575 v 5.685 c -1.324,-1.689 -2.847,-2.534 -4.57,-2.534 -0.539,0 -1.025,0.12 -1.459,0.36 -0.434,0.24 -0.806,0.576 -1.116,1.01 -0.311,0.434 -0.551,0.953 -0.721,1.558 -0.17,0.605 -0.255,1.273 -0.255,2.004 0,0.913 0.085,1.678 0.255,2.294 0.17,0.617 0.419,1.165 0.747,1.644 0.328,0.48 0.727,0.913 1.196,1.302 0.468,0.388 1.001,0.81 1.599,1.267 0.797,0.593 1.512,1.204 2.145,1.832 0.632,0.628 1.172,1.336 1.617,2.123 0.445,0.788 0.788,1.695 1.028,2.723 0.24,1.027 0.361,2.249 0.361,3.664 0,1.735 -0.197,3.242 -0.589,4.521 -0.393,1.278 -0.917,2.34 -1.574,3.185 -0.656,0.845 -1.412,1.473 -2.267,1.883 -0.856,0.411 -1.752,0.617 -2.69,0.617 -1.851,0 -3.457,-0.696 -4.816,-2.089 z"
   style="fill:#ffffff;fill-rule:nonzero"
   id="path30" />
        <path
   d="m 516.13,364.852 h -12.709 c 0.047,3.904 0.586,6.918 1.617,9.041 1.031,2.123 2.449,3.185 4.254,3.185 2.027,0 3.891,-1.302 5.59,-3.904 v 5.274 c -1.582,2.237 -3.674,3.356 -6.275,3.356 -2.543,0 -4.541,-1.593 -5.995,-4.778 -1.453,-3.185 -2.179,-7.665 -2.179,-13.441 0,-5.457 0.794,-9.904 2.382,-13.34 1.587,-3.436 3.559,-5.154 5.915,-5.154 2.355,0 4.177,1.484 5.466,4.452 1.289,2.968 1.934,7.089 1.934,12.363 z m -2.953,-4.761 c -0.012,-3.242 -0.413,-5.765 -1.204,-7.568 -0.791,-1.804 -1.89,-2.706 -3.296,-2.706 -1.36,0 -2.514,0.948 -3.463,2.843 -0.949,1.895 -1.535,4.372 -1.758,7.431 z"
   style="fill:#ffffff;fill-rule:nonzero"
   id="path32" />
        <path
   d="m 560.62,331.872 -7.119,49.11 h -3.463 l -5.185,-35.891 c -0.223,-1.53 -0.358,-3.196 -0.405,-5 h -0.07 c -0.07,1.69 -0.223,3.333 -0.457,4.932 l -5.221,35.959 h -3.427 l -7.383,-49.11 h 3.252 l 5.361,37.671 c 0.223,1.576 0.363,3.22 0.422,4.932 h 0.088 c 0.058,-1.21 0.24,-2.854 0.545,-4.932 l 5.572,-37.671 h 2.83 l 5.344,37.945 c 0.187,1.302 0.328,2.832 0.422,4.59 h 0.07 c 0.047,-1.188 0.205,-2.763 0.475,-4.727 l 5.15,-37.808 z"
   style="fill:#ffffff;fill-rule:nonzero"
   id="path34" />
        <path
   d="m 575.456,380.982 h -2.883 v -5.48 h -0.07 c -1.254,4.201 -3.1,6.302 -5.537,6.302 -1.793,0 -3.196,-0.925 -4.21,-2.774 -1.014,-1.849 -1.521,-4.304 -1.521,-7.363 0,-6.553 1.981,-10.366 5.942,-11.439 l 5.396,-1.472 c 0,-5.959 -1.236,-8.939 -3.709,-8.939 -2.168,0 -4.125,1.439 -5.871,4.315 v -5.753 c 1.77,-2.192 3.809,-3.288 6.117,-3.288 4.231,0 6.346,4.361 6.346,13.082 z m -2.883,-17.74 -4.341,1.164 c -1.336,0.366 -2.344,1.011 -3.024,1.935 -0.68,0.925 -1.019,2.563 -1.019,4.915 0,1.712 0.313,3.111 0.94,4.195 0.627,1.085 1.462,1.627 2.505,1.627 1.43,0 2.61,-0.976 3.542,-2.928 0.932,-1.952 1.397,-4.424 1.397,-7.415 z"
   style="fill:#ffffff;fill-rule:nonzero"
   id="path36" />
        <path
   d="m 582.364,337.009 c -0.515,0 -0.955,-0.343 -1.318,-1.028 -0.363,-0.685 -0.545,-1.552 -0.545,-2.602 0,-1.051 0.182,-1.924 0.545,-2.62 0.363,-0.697 0.803,-1.045 1.318,-1.045 0.528,0 0.976,0.348 1.345,1.045 0.369,0.696 0.554,1.569 0.554,2.62 0,1.004 -0.185,1.86 -0.554,2.568 -0.369,0.708 -0.817,1.062 -1.345,1.062 z m 1.407,43.973 h -2.883 v -35.069 h 2.883 z"
   style="fill:#ffffff;fill-rule:nonzero"
   id="path38" />
        <path
   d="m 597.956,380.64 c -0.68,0.73 -1.576,1.095 -2.689,1.095 -3.153,0 -4.729,-3.424 -4.729,-10.274 v -20.753 h -3.094 v -4.795 h 3.094 v -8.562 l 2.883,-1.815 v 10.377 h 4.535 v 4.795 h -4.535 v 19.76 c 0,2.352 0.205,4.03 0.615,5.034 0.41,1.005 1.09,1.507 2.039,1.507 0.727,0 1.354,-0.388 1.881,-1.164 z"
   style="fill:#ffffff;fill-rule:nonzero"
   id="path40" />
    </g>
    <g
   transform="matrix(1.904878,0,0,1.904878,-637.4492,10.698172)"
   id="g56">
        <g
   transform="translate(374)"
   id="g46">
            <path
   d="M 31.6,3.5 C 5.9,13.6 -6.6,42.7 3.5,68.4 13.6,94.1 42.7,106.7 68.4,96.5 L 65.3,88.6 C 44,97 19.9,86.6 11.5,65.3 3.1,44 13.5,19.9 34.8,11.5 Z"
   style="fill:#88f387;fill-rule:nonzero"
   id="path44">
                <animateTransform
   attributeName="transform"
   attributeType="XML"
   type="rotate"
   dur="5s"
   from="0 50 50"
   to="360 50 50"
   repeatCount="indefinite" />
            </path>
        </g>
        <g
   transform="translate(374)"
   id="g50">
            <path
   d="m 42.3,39.6 c 5.7,-4.3 13.9,-3.1 18.1,2.7 4.3,5.7 3.1,13.9 -2.7,18.1 l 4.1,5.5 c 8.8,-6.5 10.6,-19 4.1,-27.7 -6.5,-8.8 -19,-10.6 -27.7,-4.1 z"
   style="fill:#ffffff;fill-rule:nonzero"
   id="path48">
                <animateTransform
   attributeName="transform"
   attributeType="XML"
   type="rotate"
   dur="2s"
   from="0 50 50"
   to="-360 50 50"
   repeatCount="indefinite" />
            </path>
        </g>
        <g
   transform="translate(374)"
   id="g54">
            <path
   d="M 82,35.7 C 74.1,18 53.4,10.1 35.7,18 18,25.9 10.1,46.6 18,64.3 l 7.6,-3.4 c -6,-13.5 0,-29.3 13.5,-35.3 13.5,-6 29.3,0 35.3,13.5 z"
   style="fill:#d40000;fill-rule:nonzero"
   id="path52">
                <animateTransform
   attributeName="transform"
   attributeType="XML"
   type="rotate"
   dur="2s"
   from="0 50 50"
   to="360 50 50"
   repeatCount="indefinite" />
            </path>
        </g>
    </g>
</svg>
