<?xml version="1.0" encoding="UTF-8" standalone="no"?>
<!DOCTYPE svg PUBLIC "-//W3C//DTD SVG 1.1//EN" "http://www.w3.org/Graphics/SVG/1.1/DTD/svg11.dtd">
<svg width="100%" height="100%" viewBox="0 0 848 447" version="1.1"
  xmlns="http://www.w3.org/2000/svg" xmlns:xlink="http://www.w3.org/1999/xlink" xml:space="preserve"
  style="fill-rule:evenodd;clip-rule:evenodd;stroke-linejoin:round;stroke-miterlimit:2;">
    <path d="M848,15c-0,-8.284 -6.716,-15 -15,-15c-103.796,0 -714.204,0 -818,0c-8.284,0 -15,6.716 -15,15c0,68.166 0,348.352 0,416.518c0,8.284 6.716,15 15,15c103.796,-0 714.204,-0 818,-0c8.284,-0 15,-6.716 15,-15c-0,-68.166 -0,-348.352 -0,-416.518Z" style="fill:#212529;"/>
    <g>
        <path d="M275.72,385.123l-13.078,0l-0,-25.207l2.953,0l-0,22.535l10.125,0l-0,2.672Z" style="fill:#fff;fill-rule:nonzero;"/>
        <path d="M286.724,385.545c-2.661,0 -4.785,-0.841 -6.372,-2.522c-1.588,-1.682 -2.382,-3.911 -2.382,-6.689c-0,-3.023 0.826,-5.385 2.478,-7.084c1.653,-1.699 3.885,-2.549 6.698,-2.549c2.683,0 4.778,0.827 6.284,2.479c1.506,1.652 2.258,3.943 2.258,6.873c0,2.871 -0.811,5.171 -2.434,6.899c-1.623,1.729 -3.8,2.593 -6.53,2.593Zm0.211,-16.418c-1.852,0 -3.317,0.63 -4.395,1.89c-1.078,1.26 -1.617,2.997 -1.617,5.212c-0,2.133 0.545,3.814 1.635,5.045c1.089,1.23 2.548,1.845 4.377,1.845c1.863,0 3.295,-0.603 4.297,-1.81c1.002,-1.207 1.503,-2.924 1.503,-5.151c0,-2.25 -0.501,-3.984 -1.503,-5.203c-1.002,-1.218 -2.434,-1.828 -4.297,-1.828Z" style="fill:#fff;fill-rule:nonzero;"/>
        <path d="M313.179,385.123l-2.883,0l-0,-2.812l-0.07,-0c-1.254,2.156 -3.1,3.234 -5.538,3.234c-1.792,0 -3.196,-0.474 -4.209,-1.424c-1.014,-0.949 -1.521,-2.209 -1.521,-3.779c0,-3.363 1.98,-5.32 5.941,-5.871l5.397,-0.756c-0,-3.058 -1.236,-4.588 -3.709,-4.588c-2.168,0 -4.125,0.739 -5.871,2.215l-0,-2.953c1.769,-1.125 3.808,-1.688 6.117,-1.688c4.23,0 6.346,2.239 6.346,6.715l-0,11.707Zm-2.883,-9.105l-4.342,0.598c-1.336,0.187 -2.344,0.518 -3.023,0.993c-0.68,0.474 -1.02,1.315 -1.02,2.522c0,0.879 0.314,1.597 0.941,2.153c0.627,0.557 1.461,0.835 2.504,0.835c1.43,0 2.611,-0.501 3.542,-1.503c0.932,-1.001 1.398,-2.27 1.398,-3.805l-0,-1.793Z" style="fill:#fff;fill-rule:nonzero;"/>
        <path d="M333.974,385.123l-2.883,0l-0,-3.058l-0.07,-0c-1.336,2.32 -3.399,3.48 -6.188,3.48c-2.262,0 -4.069,-0.805 -5.423,-2.417c-1.353,-1.611 -2.03,-3.805 -2.03,-6.583c-0,-2.976 0.75,-5.361 2.25,-7.154c1.5,-1.793 3.498,-2.69 5.994,-2.69c2.473,0 4.272,0.973 5.397,2.918l0.07,0l-0,-11.144l2.883,-0l-0,26.648Zm-2.883,-8.138l-0,-2.655c-0,-1.453 -0.481,-2.683 -1.442,-3.691c-0.961,-1.008 -2.179,-1.512 -3.656,-1.512c-1.758,0 -3.14,0.645 -4.148,1.934c-1.008,1.289 -1.512,3.07 -1.512,5.344c0,2.074 0.483,3.711 1.45,4.913c0.967,1.201 2.265,1.801 3.894,1.801c1.605,0 2.909,-0.58 3.911,-1.74c1.002,-1.16 1.503,-2.625 1.503,-4.394Z" style="fill:#fff;fill-rule:nonzero;"/>
        <path d="M341.286,362.553c-0.515,0 -0.955,-0.176 -1.318,-0.527c-0.364,-0.352 -0.545,-0.797 -0.545,-1.336c-0,-0.539 0.181,-0.988 0.545,-1.345c0.363,-0.357 0.803,-0.536 1.318,-0.536c0.527,-0 0.976,0.179 1.345,0.536c0.369,0.357 0.554,0.806 0.554,1.345c-0,0.515 -0.185,0.955 -0.554,1.318c-0.369,0.363 -0.818,0.545 -1.345,0.545Zm1.406,22.57l-2.882,0l-0,-18l2.882,0l0,18Z" style="fill:#fff;fill-rule:nonzero;"/>
        <path d="M363.47,385.123l-2.883,0l-0,-10.265c-0,-3.821 -1.395,-5.731 -4.184,-5.731c-1.441,0 -2.633,0.542 -3.577,1.626c-0.943,1.084 -1.415,2.452 -1.415,4.105l0,10.265l-2.883,0l0,-18l2.883,0l0,2.989l0.07,-0c1.36,-2.274 3.329,-3.411 5.907,-3.411c1.968,0 3.474,0.636 4.517,1.908c1.043,1.271 1.565,3.108 1.565,5.51l-0,11.004Z" style="fill:#fff;fill-rule:nonzero;"/>
        <path d="M384.265,383.682c-0,6.609 -3.164,9.914 -9.493,9.914c-2.226,-0 -4.171,-0.422 -5.835,-1.266l-0,-2.882c2.027,1.125 3.96,1.687 5.8,1.687c4.43,0 6.645,-2.355 6.645,-7.066l-0,-1.969l-0.07,-0c-1.372,2.297 -3.434,3.445 -6.188,3.445c-2.238,0 -4.04,-0.8 -5.405,-2.399c-1.365,-1.6 -2.048,-3.747 -2.048,-6.443c-0,-3.058 0.735,-5.49 2.206,-7.295c1.471,-1.804 3.483,-2.707 6.038,-2.707c2.426,0 4.225,0.973 5.397,2.918l0.07,0l-0,-2.496l2.883,0l-0,16.559Zm-2.883,-6.697l-0,-2.655c-0,-1.429 -0.484,-2.654 -1.45,-3.673c-0.967,-1.02 -2.171,-1.53 -3.613,-1.53c-1.781,0 -3.175,0.648 -4.183,1.943c-1.008,1.295 -1.512,3.108 -1.512,5.44c0,2.004 0.483,3.606 1.45,4.808c0.967,1.201 2.247,1.801 3.841,1.801c1.617,0 2.933,-0.574 3.946,-1.722c1.014,-1.149 1.521,-2.619 1.521,-4.412Z" style="fill:#fff;fill-rule:nonzero;"/>
        <path d="M392.737,381.116l-2.812,8.648l-2.057,-0l2.057,-8.648l2.812,-0Z" style="fill:#fff;fill-rule:nonzero;"/>
        <path d="M411.106,375.596l0,9.527l-2.953,0l0,-25.207l6.926,0c2.695,0 4.784,0.657 6.267,1.969c1.482,1.313 2.223,3.164 2.223,5.555c0,2.39 -0.823,4.347 -2.469,5.871c-1.647,1.523 -3.871,2.285 -6.671,2.285l-3.323,-0Zm0,-13.008l0,10.336l3.094,0c2.039,0 3.595,-0.466 4.667,-1.397c1.072,-0.932 1.609,-2.247 1.609,-3.947c-0,-3.328 -1.969,-4.992 -5.907,-4.992l-3.463,0Z" style="fill:#fff;fill-rule:nonzero;"/>
        <rect x="427.929" y="358.475" width="2.883" height="26.648" style="fill:#fff;fill-rule:nonzero;"/>
        <path d="M451.114,376.844l-12.709,0c0.047,2.004 0.586,3.551 1.617,4.641c1.032,1.089 2.45,1.634 4.254,1.634c2.028,0 3.891,-0.668 5.59,-2.003l0,2.707c-1.582,1.148 -3.674,1.722 -6.275,1.722c-2.543,0 -4.541,-0.817 -5.994,-2.452c-1.453,-1.635 -2.18,-3.935 -2.18,-6.899c-0,-2.801 0.794,-5.083 2.382,-6.847c1.588,-1.764 3.559,-2.646 5.915,-2.646c2.355,0 4.178,0.762 5.467,2.286c1.289,1.523 1.933,3.638 1.933,6.345l0,1.512Zm-2.953,-2.443c-0.012,-1.664 -0.413,-2.959 -1.204,-3.885c-0.791,-0.926 -1.89,-1.389 -3.296,-1.389c-1.359,0 -2.514,0.487 -3.463,1.459c-0.949,0.973 -1.535,2.244 -1.758,3.815l9.721,-0Z" style="fill:#fff;fill-rule:nonzero;"/>
        <path d="M468.358,385.123l-2.882,0l-0,-2.812l-0.071,-0c-1.254,2.156 -3.099,3.234 -5.537,3.234c-1.793,0 -3.196,-0.474 -4.21,-1.424c-1.013,-0.949 -1.52,-2.209 -1.52,-3.779c-0,-3.363 1.98,-5.32 5.941,-5.871l5.397,-0.756c-0,-3.058 -1.237,-4.588 -3.709,-4.588c-2.168,0 -4.125,0.739 -5.871,2.215l-0,-2.953c1.769,-1.125 3.808,-1.688 6.117,-1.688c4.23,0 6.345,2.239 6.345,6.715l0,11.707Zm-2.882,-9.105l-4.342,0.598c-1.336,0.187 -2.344,0.518 -3.024,0.993c-0.679,0.474 -1.019,1.315 -1.019,2.522c-0,0.879 0.313,1.597 0.94,2.153c0.627,0.557 1.462,0.835 2.505,0.835c1.43,0 2.61,-0.501 3.542,-1.503c0.932,-1.001 1.398,-2.27 1.398,-3.805l-0,-1.793Z" style="fill:#fff;fill-rule:nonzero;"/>
        <path d="M472.7,384.473l0,-3.094c1.571,1.16 3.299,1.74 5.186,1.74c2.531,0 3.797,-0.843 3.797,-2.531c-0,-0.48 -0.109,-0.888 -0.326,-1.222c-0.216,-0.334 -0.509,-0.629 -0.878,-0.887c-0.37,-0.258 -0.803,-0.489 -1.301,-0.695c-0.498,-0.205 -1.034,-0.418 -1.609,-0.641c-0.797,-0.317 -1.497,-0.636 -2.1,-0.958c-0.604,-0.322 -1.108,-0.686 -1.512,-1.09c-0.404,-0.404 -0.709,-0.864 -0.914,-1.38c-0.205,-0.516 -0.308,-1.119 -0.308,-1.81c0,-0.844 0.194,-1.591 0.58,-2.242c0.387,-0.65 0.903,-1.195 1.547,-1.634c0.645,-0.44 1.38,-0.771 2.206,-0.994c0.827,-0.222 1.679,-0.334 2.558,-0.334c1.559,0 2.953,0.27 4.184,0.809l-0,2.918c-1.325,-0.867 -2.848,-1.301 -4.571,-1.301c-0.539,0 -1.025,0.062 -1.459,0.185c-0.433,0.123 -0.805,0.296 -1.116,0.518c-0.31,0.223 -0.551,0.49 -0.721,0.8c-0.17,0.311 -0.255,0.653 -0.255,1.028c0,0.469 0.085,0.862 0.255,1.178c0.17,0.317 0.419,0.598 0.747,0.844c0.329,0.246 0.727,0.469 1.196,0.668c0.468,0.199 1.002,0.416 1.599,0.65c0.797,0.305 1.512,0.618 2.145,0.941c0.633,0.322 1.172,0.685 1.617,1.09c0.445,0.404 0.788,0.87 1.028,1.397c0.241,0.527 0.361,1.154 0.361,1.881c-0,0.891 -0.197,1.664 -0.589,2.32c-0.393,0.656 -0.917,1.201 -1.573,1.635c-0.657,0.434 -1.412,0.756 -2.268,0.967c-0.855,0.211 -1.752,0.316 -2.689,0.316c-1.852,0 -3.457,-0.357 -4.817,-1.072Z" style="fill:#fff;fill-rule:nonzero;"/>
        <path d="M503.532,376.844l-12.709,0c0.047,2.004 0.586,3.551 1.617,4.641c1.032,1.089 2.45,1.634 4.254,1.634c2.028,0 3.891,-0.668 5.59,-2.003l0,2.707c-1.582,1.148 -3.674,1.722 -6.275,1.722c-2.543,0 -4.541,-0.817 -5.994,-2.452c-1.453,-1.635 -2.18,-3.935 -2.18,-6.899c-0,-2.801 0.794,-5.083 2.382,-6.847c1.588,-1.764 3.559,-2.646 5.915,-2.646c2.355,0 4.178,0.762 5.467,2.286c1.289,1.523 1.933,3.638 1.933,6.345l0,1.512Zm-2.953,-2.443c-0.012,-1.664 -0.413,-2.959 -1.204,-3.885c-0.791,-0.926 -1.89,-1.389 -3.296,-1.389c-1.359,0 -2.514,0.487 -3.463,1.459c-0.949,0.973 -1.535,2.244 -1.758,3.815l9.721,-0Z" style="fill:#fff;fill-rule:nonzero;"/>
        <path d="M548.022,359.916l-7.119,25.207l-3.463,0l-5.185,-18.422c-0.223,-0.785 -0.358,-1.64 -0.404,-2.566l-0.071,0c-0.07,0.867 -0.222,1.711 -0.457,2.531l-5.22,18.457l-3.428,0l-7.383,-25.207l3.252,0l5.361,19.336c0.223,0.809 0.364,1.653 0.422,2.531l0.088,0c0.059,-0.621 0.24,-1.464 0.545,-2.531l5.572,-19.336l2.83,0l5.344,19.477c0.188,0.668 0.328,1.453 0.422,2.355l0.07,0c0.047,-0.609 0.205,-1.418 0.475,-2.425l5.15,-19.407l3.199,0Z" style="fill:#fff;fill-rule:nonzero;"/>
        <path d="M562.858,385.123l-2.882,0l-0,-2.812l-0.071,-0c-1.254,2.156 -3.099,3.234 -5.537,3.234c-1.793,0 -3.196,-0.474 -4.21,-1.424c-1.013,-0.949 -1.52,-2.209 -1.52,-3.779c-0,-3.363 1.98,-5.32 5.941,-5.871l5.397,-0.756c-0,-3.058 -1.237,-4.588 -3.709,-4.588c-2.168,0 -4.125,0.739 -5.871,2.215l-0,-2.953c1.769,-1.125 3.808,-1.688 6.117,-1.688c4.23,0 6.345,2.239 6.345,6.715l0,11.707Zm-2.882,-9.105l-4.342,0.598c-1.336,0.187 -2.344,0.518 -3.024,0.993c-0.679,0.474 -1.019,1.315 -1.019,2.522c-0,0.879 0.313,1.597 0.94,2.153c0.627,0.557 1.462,0.835 2.505,0.835c1.43,0 2.61,-0.501 3.542,-1.503c0.932,-1.001 1.398,-2.27 1.398,-3.805l-0,-1.793Z" style="fill:#fff;fill-rule:nonzero;"/>
        <path d="M569.767,362.553c-0.516,0 -0.955,-0.176 -1.319,-0.527c-0.363,-0.352 -0.545,-0.797 -0.545,-1.336c0,-0.539 0.182,-0.988 0.545,-1.345c0.364,-0.357 0.803,-0.536 1.319,-0.536c0.527,-0 0.975,0.179 1.344,0.536c0.369,0.357 0.554,0.806 0.554,1.345c0,0.515 -0.185,0.955 -0.554,1.318c-0.369,0.363 -0.817,0.545 -1.344,0.545Zm1.406,22.57l-2.883,0l0,-18l2.883,0l-0,18Z" style="fill:#fff;fill-rule:nonzero;"/>
        <path d="M585.358,384.948c-0.679,0.375 -1.576,0.562 -2.689,0.562c-3.152,0 -4.729,-1.758 -4.729,-5.273l0,-10.653l-3.093,0l-0,-2.461l3.093,0l0,-4.394l2.883,-0.932l0,5.326l4.535,0l0,2.461l-4.535,0l0,10.143c0,1.207 0.205,2.068 0.615,2.584c0.411,0.515 1.09,0.773 2.04,0.773c0.726,0 1.353,-0.199 1.88,-0.597l0,2.461Z" style="fill:#fff;fill-rule:nonzero;"/>
    </g>
    <g>
        <path d="M371.293,47.791c-72.483,28.486 -107.738,110.559 -79.252,183.042c28.486,72.484 110.559,108.02 183.042,79.253l-8.743,-22.281c-60.074,23.691 -128.045,-5.641 -151.736,-65.715c-23.691,-60.074 5.641,-128.045 65.715,-151.736l-9.026,-22.563Z" style="fill:#88f387;fill-rule:nonzero;">
          <animateTransform 
            attributeName="transform" 
            attributeType="XML" 
            type="rotate"
            dur="2s" 
            from="0 50 50"
            to="360 50 50" 
            repeatCount="indefinite" />
        </path>
        <path d="M401.471,149.607c16.076,-12.128 39.204,-8.743 51.049,7.615c12.128,16.076 8.743,39.203 -7.615,51.048l11.564,15.512c24.819,-18.332 29.896,-53.587 11.563,-78.124c-18.332,-24.819 -53.587,-29.896 -78.124,-11.563l11.563,15.512Z" style="fill:#d40000;fill-rule:nonzero;">
          <animateTransform 
            attributeName="transform" 
            attributeType="XML" 
            type="rotate"
            dur="1s" 
            from="0 50 50"
            to="-360 50 50" 
            repeatCount="indefinite" />
        </path>
        <path d="M513.44,138.607c-22.281,-49.92 -80.663,-72.201 -130.583,-49.92c-49.921,22.281 -72.202,80.662 -49.921,130.583l21.435,-9.589c-16.922,-38.075 0,-82.637 38.075,-99.559c38.075,-16.923 82.637,-0 99.559,38.075l21.435,-9.59Z" style="fill:#fff;fill-rule:nonzero;">
          <animateTransform 
            attributeName="transform" 
            attributeType="XML" 
            type="rotate"
            dur="2s" 
            from="0 50 50"
            to="360 50 50" 
            repeatCount="indefinite" />
        </path>
    </g>
</svg>
