<?xml version="1.0" encoding="UTF-8" standalone="no"?>
<!DOCTYPE svg PUBLIC "-//W3C//DTD SVG 1.1//EN" "http://www.w3.org/Graphics/SVG/1.1/DTD/svg11.dtd">
<svg width="100%" height="100%" viewBox="0 0 848 447" version="1.1"
    xmlns="http://www.w3.org/2000/svg" xmlns:xlink="http://www.w3.org/1999/xlink"
    xml:space="preserve" xmlns:serif="http://www.serif.com/"
    style="fill-rule:evenodd;clip-rule:evenodd;stroke-linejoin:round;stroke-miterlimit:2;">
    <g transform="matrix(7.30294,0,-4.44089e-16,4.26642,-1108.6,-367.481)">
        <path d="M267.919,89.649C267.919,87.707 267,86.133 265.865,86.133C251.652,86.133 168.069,86.133 153.856,86.133C152.721,86.133 151.802,87.707 151.802,89.649L151.802,187.276C151.802,189.218 152.721,190.792 153.856,190.792C168.069,190.792 251.652,190.792 265.865,190.792C267,190.792 267.919,189.218 267.919,187.276L267.919,89.649Z" style="fill:rgb(43,48,53);"/>
    </g>
    <g transform="matrix(1,0,0,0.513275,-12.5978,189.575)">
        <path d="M288.317,380.982L275.239,380.982L275.239,331.872L278.192,331.872L278.192,375.776L288.317,375.776L288.317,380.982Z" style="fill:white;fill-rule:nonzero;"/>
        <path d="M299.321,381.804C296.661,381.804 294.537,380.166 292.949,376.889C291.361,373.613 290.567,369.27 290.567,363.858C290.567,357.968 291.394,353.367 293.046,350.057C294.698,346.746 296.931,345.091 299.743,345.091C302.427,345.091 304.522,346.701 306.027,349.92C307.533,353.139 308.286,357.603 308.286,363.311C308.286,368.904 307.475,373.385 305.852,376.752C304.229,380.12 302.052,381.804 299.321,381.804ZM299.532,349.817C297.681,349.817 296.216,351.044 295.138,353.499C294.06,355.953 293.521,359.338 293.521,363.653C293.521,367.808 294.066,371.085 295.155,373.482C296.245,375.879 297.704,377.078 299.532,377.078C301.396,377.078 302.828,375.902 303.83,373.55C304.832,371.199 305.333,367.854 305.333,363.516C305.333,359.132 304.832,355.753 303.83,353.379C302.828,351.004 301.396,349.817 299.532,349.817Z" style="fill:white;fill-rule:nonzero;"/>
        <path d="M325.776,380.982L322.894,380.982L322.894,375.502L322.823,375.502C321.569,379.703 319.724,381.804 317.286,381.804C315.493,381.804 314.09,380.879 313.076,379.03C312.063,377.181 311.556,374.726 311.556,371.667C311.556,365.114 313.536,361.301 317.497,360.228L322.894,358.756C322.894,352.797 321.657,349.817 319.185,349.817C317.017,349.817 315.06,351.256 313.314,354.132L313.314,348.379C315.083,346.187 317.122,345.091 319.431,345.091C323.661,345.091 325.776,349.452 325.776,358.173L325.776,380.982ZM322.894,363.242L318.552,364.406C317.216,364.772 316.208,365.417 315.528,366.341C314.849,367.266 314.509,368.904 314.509,371.256C314.509,372.968 314.822,374.367 315.449,375.451C316.076,376.536 316.911,377.078 317.954,377.078C319.384,377.078 320.565,376.102 321.496,374.15C322.428,372.198 322.894,369.726 322.894,366.735L322.894,363.242Z" style="fill:white;fill-rule:nonzero;"/>
        <path d="M346.571,380.982L343.689,380.982L343.689,375.023L343.618,375.023C342.282,379.544 340.22,381.804 337.431,381.804C335.169,381.804 333.361,380.234 332.008,377.095C330.654,373.956 329.978,369.68 329.978,364.269C329.978,358.47 330.728,353.824 332.228,350.331C333.728,346.838 335.726,345.091 338.222,345.091C340.694,345.091 342.493,346.986 343.618,350.776L343.689,350.776L343.689,329.064L346.571,329.064L346.571,380.982ZM343.689,365.126L343.689,359.954C343.689,357.123 343.208,354.726 342.247,352.762C341.286,350.799 340.067,349.817 338.591,349.817C336.833,349.817 335.45,351.073 334.442,353.584C333.435,356.096 332.931,359.566 332.931,363.995C332.931,368.037 333.414,371.227 334.381,373.568C335.348,375.908 336.646,377.078 338.275,377.078C339.88,377.078 341.184,375.948 342.186,373.687C343.188,371.427 343.689,368.573 343.689,365.126Z" style="fill:white;fill-rule:nonzero;"/>
        <path d="M353.884,337.009C353.368,337.009 352.929,336.666 352.566,335.981C352.202,335.296 352.021,334.429 352.021,333.379C352.021,332.328 352.202,331.455 352.566,330.759C352.929,330.062 353.368,329.714 353.884,329.714C354.411,329.714 354.859,330.062 355.229,330.759C355.598,331.455 355.782,332.328 355.782,333.379C355.782,334.383 355.598,335.239 355.229,335.947C354.859,336.655 354.411,337.009 353.884,337.009ZM355.29,380.982L352.407,380.982L352.407,345.913L355.29,345.913L355.29,380.982Z" style="fill:white;fill-rule:nonzero;"/>
        <path d="M376.067,380.982L373.185,380.982L373.185,360.982C373.185,353.539 371.79,349.817 369.001,349.817C367.56,349.817 366.367,350.873 365.424,352.985C364.481,355.097 364.009,357.763 364.009,360.982L364.009,380.982L361.126,380.982L361.126,345.913L364.009,345.913L364.009,351.735L364.079,351.735C365.439,347.306 367.407,345.091 369.985,345.091C371.954,345.091 373.46,346.33 374.503,348.807C375.546,351.284 376.067,354.863 376.067,359.543L376.067,380.982Z" style="fill:white;fill-rule:nonzero;"/>
        <path d="M396.862,378.174C396.862,391.051 393.698,397.489 387.37,397.489C385.144,397.489 383.198,396.667 381.534,395.023L381.534,389.407C383.562,391.599 385.495,392.694 387.335,392.694C391.765,392.694 393.98,388.105 393.98,378.927L393.98,375.092L393.909,375.092C392.538,379.566 390.476,381.804 387.722,381.804C385.484,381.804 383.682,380.246 382.317,377.129C380.951,374.013 380.269,369.829 380.269,364.578C380.269,358.619 381.004,353.881 382.475,350.365C383.945,346.849 385.958,345.091 388.513,345.091C390.939,345.091 392.737,346.986 393.909,350.776L393.98,350.776L393.98,345.913L396.862,345.913L396.862,378.174ZM393.98,365.126L393.98,359.954C393.98,357.169 393.496,354.783 392.529,352.797C391.563,350.81 390.359,349.817 388.917,349.817C387.136,349.817 385.741,351.079 384.734,353.602C383.726,356.124 383.222,359.658 383.222,364.201C383.222,368.105 383.705,371.227 384.672,373.568C385.639,375.908 386.919,377.078 388.513,377.078C390.13,377.078 391.445,375.959 392.459,373.722C393.473,371.484 393.98,368.619 393.98,365.126Z" style="fill:white;fill-rule:nonzero;"/>
        <path d="M405.335,373.174L402.523,390.023L400.466,390.023L402.523,373.174L405.335,373.174Z" style="fill:white;fill-rule:nonzero;"/>
        <path d="M423.704,362.42L423.704,380.982L420.751,380.982L420.751,331.872L427.677,331.872C430.372,331.872 432.461,333.15 433.943,335.707C435.426,338.265 436.167,341.872 436.167,346.529C436.167,351.187 435.344,355 433.697,357.968C432.051,360.936 429.827,362.42 427.026,362.42L423.704,362.42ZM423.704,337.077L423.704,357.215L426.798,357.215C428.837,357.215 430.393,356.307 431.465,354.492C432.537,352.677 433.073,350.114 433.073,346.803C433.073,340.319 431.105,337.077 427.167,337.077L423.704,337.077Z" style="fill:white;fill-rule:nonzero;"/>
        <rect x="440.526" y="329.064" width="2.883" height="51.918" style="fill:white;fill-rule:nonzero;"/>
        <path d="M463.712,364.852L451.003,364.852C451.05,368.756 451.589,371.77 452.62,373.893C453.651,376.016 455.069,377.078 456.874,377.078C458.901,377.078 460.765,375.776 462.464,373.174L462.464,378.448C460.882,380.685 458.79,381.804 456.189,381.804C453.646,381.804 451.648,380.211 450.194,377.026C448.741,373.841 448.015,369.361 448.015,363.585C448.015,358.128 448.809,353.681 450.397,350.245C451.984,346.809 453.956,345.091 456.312,345.091C458.667,345.091 460.489,346.575 461.778,349.543C463.067,352.511 463.712,356.632 463.712,361.906L463.712,364.852ZM460.759,360.091C460.747,356.849 460.346,354.326 459.555,352.523C458.764,350.719 457.665,349.817 456.259,349.817C454.9,349.817 453.745,350.765 452.796,352.66C451.847,354.555 451.261,357.032 451.038,360.091L460.759,360.091Z" style="fill:white;fill-rule:nonzero;"/>
        <path d="M480.956,380.982L478.073,380.982L478.073,375.502L478.003,375.502C476.749,379.703 474.903,381.804 472.466,381.804C470.673,381.804 469.27,380.879 468.256,379.03C467.242,377.181 466.735,374.726 466.735,371.667C466.735,365.114 468.716,361.301 472.677,360.228L478.073,358.756C478.073,352.797 476.837,349.817 474.364,349.817C472.196,349.817 470.239,351.256 468.493,354.132L468.493,348.379C470.263,346.187 472.302,345.091 474.61,345.091C478.841,345.091 480.956,349.452 480.956,358.173L480.956,380.982ZM478.073,363.242L473.732,364.406C472.396,364.772 471.388,365.417 470.708,366.341C470.028,367.266 469.689,368.904 469.689,371.256C469.689,372.968 470.002,374.367 470.629,375.451C471.256,376.536 472.091,377.078 473.134,377.078C474.564,377.078 475.744,376.102 476.676,374.15C477.608,372.198 478.073,369.726 478.073,366.735L478.073,363.242Z" style="fill:white;fill-rule:nonzero;"/>
        <path d="M485.298,379.715L485.298,373.687C486.868,375.948 488.597,377.078 490.484,377.078C493.015,377.078 494.28,375.434 494.28,372.146C494.28,371.21 494.172,370.417 493.955,369.766C493.738,369.115 493.445,368.539 493.076,368.037C492.707,367.534 492.274,367.083 491.775,366.684C491.277,366.284 490.741,365.868 490.167,365.434C489.37,364.817 488.67,364.195 488.067,363.567C487.463,362.94 486.959,362.232 486.555,361.444C486.15,360.656 485.846,359.76 485.641,358.756C485.436,357.751 485.333,356.575 485.333,355.228C485.333,353.584 485.526,352.129 485.913,350.862C486.3,349.595 486.816,348.533 487.46,347.677C488.105,346.821 488.84,346.176 489.666,345.742C490.492,345.308 491.345,345.091 492.224,345.091C493.782,345.091 495.177,345.616 496.407,346.666L496.407,352.351C495.083,350.662 493.56,349.817 491.837,349.817C491.298,349.817 490.812,349.937 490.378,350.177C489.944,350.417 489.572,350.753 489.262,351.187C488.951,351.621 488.711,352.14 488.541,352.745C488.371,353.35 488.286,354.018 488.286,354.749C488.286,355.662 488.371,356.427 488.541,357.043C488.711,357.66 488.96,358.208 489.288,358.687C489.616,359.167 490.015,359.6 490.484,359.989C490.952,360.377 491.485,360.799 492.083,361.256C492.88,361.849 493.595,362.46 494.228,363.088C494.86,363.716 495.4,364.424 495.845,365.211C496.29,365.999 496.633,366.906 496.873,367.934C497.113,368.961 497.234,370.183 497.234,371.598C497.234,373.333 497.037,374.84 496.645,376.119C496.252,377.397 495.728,378.459 495.071,379.304C494.415,380.149 493.659,380.777 492.804,381.187C491.948,381.598 491.052,381.804 490.114,381.804C488.263,381.804 486.657,381.108 485.298,379.715Z" style="fill:white;fill-rule:nonzero;"/>
        <path d="M516.13,364.852L503.421,364.852C503.468,368.756 504.007,371.77 505.038,373.893C506.069,376.016 507.487,377.078 509.292,377.078C511.319,377.078 513.183,375.776 514.882,373.174L514.882,378.448C513.3,380.685 511.208,381.804 508.607,381.804C506.064,381.804 504.066,380.211 502.612,377.026C501.159,373.841 500.433,369.361 500.433,363.585C500.433,358.128 501.227,353.681 502.815,350.245C504.402,346.809 506.374,345.091 508.73,345.091C511.085,345.091 512.907,346.575 514.196,349.543C515.485,352.511 516.13,356.632 516.13,361.906L516.13,364.852ZM513.177,360.091C513.165,356.849 512.764,354.326 511.973,352.523C511.182,350.719 510.083,349.817 508.677,349.817C507.317,349.817 506.163,350.765 505.214,352.66C504.265,354.555 503.679,357.032 503.456,360.091L513.177,360.091Z" style="fill:white;fill-rule:nonzero;"/>
        <path d="M560.62,331.872L553.501,380.982L550.038,380.982L544.853,345.091C544.63,343.561 544.495,341.895 544.448,340.091L544.378,340.091C544.308,341.781 544.155,343.424 543.921,345.023L538.7,380.982L535.273,380.982L527.89,331.872L531.142,331.872L536.503,369.543C536.726,371.119 536.866,372.763 536.925,374.475L537.013,374.475C537.071,373.265 537.253,371.621 537.558,369.543L543.13,331.872L545.96,331.872L551.304,369.817C551.491,371.119 551.632,372.649 551.726,374.407L551.796,374.407C551.843,373.219 552.001,371.644 552.271,369.68L557.421,331.872L560.62,331.872Z" style="fill:white;fill-rule:nonzero;"/>
        <path d="M575.456,380.982L572.573,380.982L572.573,375.502L572.503,375.502C571.249,379.703 569.403,381.804 566.966,381.804C565.173,381.804 563.77,380.879 562.756,379.03C561.742,377.181 561.235,374.726 561.235,371.667C561.235,365.114 563.216,361.301 567.177,360.228L572.573,358.756C572.573,352.797 571.337,349.817 568.864,349.817C566.696,349.817 564.739,351.256 562.993,354.132L562.993,348.379C564.763,346.187 566.802,345.091 569.11,345.091C573.341,345.091 575.456,349.452 575.456,358.173L575.456,380.982ZM572.573,363.242L568.232,364.406C566.896,364.772 565.888,365.417 565.208,366.341C564.528,367.266 564.189,368.904 564.189,371.256C564.189,372.968 564.502,374.367 565.129,375.451C565.756,376.536 566.591,377.078 567.634,377.078C569.064,377.078 570.244,376.102 571.176,374.15C572.108,372.198 572.573,369.726 572.573,366.735L572.573,363.242Z" style="fill:white;fill-rule:nonzero;"/>
        <path d="M582.364,337.009C581.849,337.009 581.409,336.666 581.046,335.981C580.683,335.296 580.501,334.429 580.501,333.379C580.501,332.328 580.683,331.455 581.046,330.759C581.409,330.062 581.849,329.714 582.364,329.714C582.892,329.714 583.34,330.062 583.709,330.759C584.078,331.455 584.263,332.328 584.263,333.379C584.263,334.383 584.078,335.239 583.709,335.947C583.34,336.655 582.892,337.009 582.364,337.009ZM583.771,380.982L580.888,380.982L580.888,345.913L583.771,345.913L583.771,380.982Z" style="fill:white;fill-rule:nonzero;"/>
        <path d="M597.956,380.64C597.276,381.37 596.38,381.735 595.267,381.735C592.114,381.735 590.538,378.311 590.538,371.461L590.538,350.708L587.444,350.708L587.444,345.913L590.538,345.913L590.538,337.351L593.421,335.536L593.421,345.913L597.956,345.913L597.956,350.708L593.421,350.708L593.421,370.468C593.421,372.82 593.626,374.498 594.036,375.502C594.446,376.507 595.126,377.009 596.075,377.009C596.802,377.009 597.429,376.621 597.956,375.845L597.956,380.64Z" style="fill:white;fill-rule:nonzero;"/>
    </g>
    <g transform="matrix(2.82037,0,0,2.82037,-772.648,37.9201)">
        <g transform="matrix(1,0,0,1,374,0)">
            <path d="M31.6,3.5C5.9,13.6 -6.6,42.7 3.5,68.4C13.6,94.1 42.7,106.7 68.4,96.5L65.3,88.6C44,97 19.9,86.6 11.5,65.3C3.1,44 13.5,19.9 34.8,11.5L31.6,3.5Z" style="fill:rgb(136,243,135);fill-rule:nonzero;">
                <animateTransform 
                    attributeName="transform" 
                    attributeType="XML" 
                    type="rotate"
                    dur="2s" 
                    from="0 50 50"
                    to="360 50 50" 
                    repeatCount="indefinite" />
            </path>
        </g>
        <g transform="matrix(1,0,0,1,374,0)">
            <path d="M42.3,39.6C48,35.3 56.2,36.5 60.4,42.3C64.7,48 63.5,56.2 57.7,60.4L61.8,65.9C70.6,59.4 72.4,46.9 65.9,38.2C59.4,29.4 46.9,27.6 38.2,34.1L42.3,39.6Z" style="fill:rgb(212,0,0);fill-rule:nonzero;">
                <animateTransform 
                    attributeName="transform" 
                    attributeType="XML" 
                    type="rotate"
                    dur="1s" 
                    from="0 50 50"
                    to="-360 50 50" 
                    repeatCount="indefinite" />
            </path>
        </g>
        <g transform="matrix(1,0,0,1,374,0)">
            <path d="M82,35.7C74.1,18 53.4,10.1 35.7,18C18,25.9 10.1,46.6 18,64.3L25.6,60.9C19.6,47.4 25.6,31.6 39.1,25.6C52.6,19.6 68.4,25.6 74.4,39.1L82,35.7Z" style="fill:white;fill-rule:nonzero;">
                <animateTransform 
                    attributeName="transform" 
                    attributeType="XML" 
                    type="rotate"
                    dur="2s" 
                    from="0 50 50"
                    to="360 50 50" 
                    repeatCount="indefinite" />
            </path>
        </g>
    </g>
</svg>
