<?xml version="1.0" encoding="UTF-8" standalone="no"?>
<svg
    width="40"
    height="40"
    version="1.1"
    xml:space="preserve"
    style="clip-rule:evenodd;fill-rule:evenodd;stroke-linejoin:round;stroke-miterlimit:2"
    viewBox="0 0 40 40"
    id="svg6"
    sodipodi:docname="logo.svg"
    inkscape:version="1.2.2 (b0a8486541, 2022-12-01)"
    xmlns:inkscape="http://www.inkscape.org/namespaces/inkscape"
    xmlns:sodipodi="http://sodipodi.sourceforge.net/DTD/sodipodi-0.dtd"
    xmlns="http://www.w3.org/2000/svg"
    xmlns:svg="http://www.w3.org/2000/svg">
  <defs id="defs10" />
  <sodipodi:namedview
      id="namedview8"
      pagecolor="#ffffff"
      bordercolor="#666666"
      borderopacity="1.0"
      inkscape:showpageshadow="2"
      inkscape:pageopacity="0.0"
      inkscape:pagecheckerboard="false"
      inkscape:deskcolor="#d1d1d1"
      showgrid="false"
      inkscape:zoom="12.690986"
      inkscape:cx="45.189555"
      inkscape:cy="23.363039"
      inkscape:window-width="2560"
      inkscape:window-height="1409"
      inkscape:window-x="5120"
      inkscape:window-y="1440"
      inkscape:window-maximized="1"
      inkscape:current-layer="svg6" />
  <g id="g4" transform="matrix(0.8086827,0,0,0.8086827,1.7067886,0.99999996)">
    <path
        id="path1042"
        d="M 22.621,46.99 H 0 v -4.488 l 8.497,-8.487 c 7.37,-7.361 8.552,-8.458 8.906,-8.264 0.225,0.123 1.868,1.698 3.651,3.499 2.764,2.792 3.21,3.335 3.021,3.678 -0.122,0.221 -0.917,1.088 -1.767,1.926 -0.85,0.839 -1.545,1.576 -1.545,1.639 0,0.064 5.286,0.089 11.747,0.058 6.461,-0.032 11.969,-0.004 12.24,0.059 l 0.491,0.116 V 46.99 Z M 33.003,10.272 c -6.732,0 -12.24,0.076 -12.24,0.17 0,0.094 0.738,0.902 1.639,1.798 0.958,0.951 1.64,1.811 1.64,2.068 0,0.598 -6.286,6.892 -6.883,6.892 -0.289,0 -3.324,-2.883 -8.8,-8.361 L 0,4.478 V 0 h 45.242 v 10.272 z"
        style="fill:#d40000;fill-rule:nonzero"
        />
    <path
        id="path1036"
        d="m 19.502,23.431 7.021,-7.021 7.022,7.021 -7.022,7.022 z"
        style="fill:#d40000;fill-rule:nonzero"
        />
  </g>
</svg>
